<svg id="Layer_1" data-name="Layer 1" xmlns="http://www.w3.org/2000/svg" viewBox="0 0 488.97459 76.1622"><defs><style>.cls-1{fill:#fff;}</style></defs><title>logo-beatport</title><path class="cls-1" d="M471.1143,55.9668c.27829-.0039,1.94529-.0488,2.56539-.0488h.0107a2.49581,2.49581,0,0,1,2.46491,2.2158V63.751c-.10161.3682.01359,1.7451-2.36721,1.9453-1.6524,0-3.0977-.0127-3.1289-.0127-23.2871.0127-22.4541-22.54-22.4541-22.54V2.9122a2.25914,2.25914,0,0,1,2.2236-2.2706h5.2607a2.32233,2.32233,0,0,1,2.29691,2.2666v8.4551h17.86429c1.3096,0,2.1181,1.5323,2.1181,2.211v5.6523a2.35546,2.35546,0,0,1-2.1259,2.0313c-.5586,0-14.72949.0166-17.85649.0166V42.792s-.709,13.2159,13.128,13.1748"/><path class="cls-1" d="M418.26169,63.3975a2.32524,2.32524,0,0,1-2.2959,2.2695h-5.2627a2.26043,2.26043,0,0,1-2.2207-2.2734V33.9668s-.833-22.5537,22.4541-22.54c.0303,0,8.3496-.0137,10.0029-.0137,2.38191.2012,2.2667,1.5772,2.3672,1.9463v5.6143a2.49888,2.49888,0,0,1-2.4638,2.2187h-.0108c-.622,0-9.164-.0449-9.4414-.0488-13.8369-.04-13.1289,13.1748-13.1289,13.1748Z"/><path class="cls-1" d="M295.167,56.712c.28031-.0039,1.94631-.0489,2.5664-.0489h.0107a2.49972,2.49972,0,0,1,2.4668,2.2168v5.6162c-.1054.3672.0127,1.7452-2.3701,1.9434-1.6504,0-3.0967-.0107-3.1289-.0107-23.2871.0127-22.4541-22.5401-22.4541-22.5401V3.6573a2.26189,2.26189,0,0,1,2.2236-2.2715h5.2618a2.32468,2.32468,0,0,1,2.2988,2.2666v8.4551h17.8642c1.3057,0,2.1143,1.5332,2.1143,2.2109v5.6514a2.35172,2.35172,0,0,1-2.125,2.0342c-.5576,0-14.7305.0166-17.8535.0166V43.5381s-.7109,13.2129,13.125,13.1739"/><path class="cls-1" d="M187.44819,21.3008l17.2286-.0342c3.1103.3829,4.2246,1.9776,4.2246,5.6817v3.7685c-.2266,2.793-.4873,5.668-5.66609,5.668h-20.748V27.0499c.08009-5.4336,2.78519-5.6016,4.96089-5.7491M212.749,55.8135c-.0888-.0078-24.3535.0303-24.3535.0303-5.4941,0-5.9434-2.2881-5.9434-9.3594v-.29c3.1973-.002,12.8887-.0127,20.8995-.0127,9.6132-.0342,15.0605-5.7471,15.3291-16.1016l-.0108-3.1357c0-9.7422-5.8721-15.5625-15.7353-15.5625h-10.2168l-4.4346.0146c-10.0928.0772-15.1934,5.3838-15.5771,16.2295l-.0489,18.8526c0,9.5048,1.8672,19.2246,15.7383,19.2246h24.335c1.71381,0,2.6855-.9063,2.6855-2.4961v-5.166c0-.8116-.34569-2.1778-2.667-2.2276"/><path class="cls-1" d="M388.34569,55.8174l-6.8799.1065h-8.6504c-4.4629,0-5.95509-1.4532-5.95509-5.7871V27.0381c.07819-5.4365,2.78129-5.6045,4.96-5.7519l15.541-.0342c5.48729,0,5.95509,2.2783,5.95509,9.3467l-.0078,19.4687c-.0791,5.4326-2.7842,5.6016-4.9629,5.75m14.7451-25.2041c0-9.5156-1.873-19.2314-15.7373-19.2314H372.6553c-10.09091.0791-15.19241,5.3847-15.58011,16.2314V50.1407c0,9.749,5.8838,15.5625,15.7402,15.5625h8.6602v.0166h6.0361c10.0918-.0752,15.1934-5.3848,15.5791-16.2315Z"/><path class="cls-1" d="M153.42679,55.712l-6.8799.0332v.0107h-8.9112c-4.4843,0-5.9931-1.4668-5.9931-5.8379l-.0215-29.1308h20.6924c5.5293,0,5.9609,2.2988,5.9609,9.4267l.0361,19.7481c-.08,5.4336-2.705,5.6015-4.8837,5.75m14.7441-25.4834c0-9.5957-1.8789-19.3936-15.8574-19.3936H131.6182V2.2891A2.32759,2.32759,0,0,0,129.3203,0h-5.2969a2.32479,2.32479,0,0,0-2.2968,2.293V49.9219c0,9.833,5.9824,15.6934,15.9091,15.6934h14.9561c10.0918-.0772,15.1953-5.3838,15.5791-16.2305V30.2286Z"/><path class="cls-1" d="M252.25779,55.8233l-16.9502.0361c-3.3916-.3037-4.5879-1.8789-4.5879-5.7226V46.3663c.22461-2.7911.4854-5.6651,5.6631-5.6651h20.7656l.0703,9.3731c-.0781,5.4355-2.7812,5.6015-4.9609,5.749M266.96389,39.17V30.6075c0-9.5059-1.8702-19.2256-15.7383-19.2256h-24.3369c-1.7159,0-2.6875.9072-2.6875,2.4971v5.165c0,.8115.3496,2.1797,2.6709,2.2275.0869.0088,24.3535-.0302,24.3535-.0302,5.4912,0,5.9433,2.291,5.9433,9.3574l-.0019.292c-3.1973.0029-12.88769.0107-20.8984.0107-9.6124.0391-15.0625,5.75-15.3311,16.1045l.0137,3.1348c0,9.7431,5.872,15.5605,15.7314,15.5605h8.67871l.02539.0274h6.0361c10.0918-.0772,15.1934-5.3829,15.5821-16.2305V39.17Z"/><path class="cls-1" d="M340.56839,54.6387c-.8975.8877-2.4092,1.3281-4.6495,1.3281H315.4053l.01849-28.8642c0-4.3311,1.5547-5.8799,5.9453-5.8799H337.6143a5.03452,5.03452,0,0,1,2.97939,1.2256c1.3047,1.3398,1.2959,3.7334,1.2559,6.5127,0,.1514-.0254,18.7344-.0254,19.164.03811,2.7813.0459,5.1768-1.2558,6.5137m11.1171-24.1953c0-9.8799-1.9101-19.0303-15.73819-19.0303H321.36909c-9.8486,0-15.7285,5.8721-15.7285,15.6895l-.0449,46.7822c0,1.4082.6943,2.2774,1.8164,2.2774h5.7109a2.33329,2.33329,0,0,0,2.2725-2.2676l.0059-8.2197h20.5175c13.8311,0,15.7383-9.1524,15.7383-19.0323V42.3965Z"/><path class="cls-1" d="M90.1084,38.5176A37.895,37.895,0,1,0,24.5898,64.4493l.002-.002a2.34771,2.34771,0,0,0,3.3174.0986l4.0849-3.8437a2.348,2.348,0,0,0,.1084-3.3086l.0039-.0049a27.583,27.583,0,1,1,40.2129,0l.0088.0088a2.3452,2.3452,0,0,0,.1123,3.3047l4.086,3.8437a2.34714,2.34714,0,0,0,3.3183-.1005l-.0039-.002A37.74786,37.74786,0,0,0,90.1084,38.5176"/><path class="cls-1" d="M104.4238,38.336a50.63491,50.63491,0,0,0-2.3027-15.1426h.0019l-.0058-.0127-.0039-.0156a2.35291,2.35291,0,0,0-2.9307-1.5176l-5.3564,1.665a2.3463,2.3463,0,0,0-1.5469,2.9336l-.0059.0039a40.41378,40.41378,0,0,1-3.8642,32.751l.0058.0059a2.347,2.347,0,0,0,.8145,3.208l4.8115,2.8848a2.34736,2.34736,0,0,0,3.2197-.8047,50.56708,50.56708,0,0,0,7.1631-25.959"/><path class="cls-1" d="M16.0166,59.002a40.42015,40.42015,0,0,1-3.8643-32.749h.002v-.0039a2.34935,2.34935,0,0,0-1.5449-2.9356L5.251,21.6446A2.34958,2.34958,0,0,0,2.3213,23.169l-.0088-.0049A50.72309,50.72309,0,0,0,7.165,64.2959l.0078-.0039a2.34654,2.34654,0,0,0,3.212.794l4.8095-2.8848a2.34665,2.34665,0,0,0,.8194-3.1972Z"/><path class="cls-1" d="M483.833,55.0166a5.127,5.127,0,1,0,5.1416,5.1084,5.11235,5.11235,0,0,0-5.1416-5.1084m0,8.8799a3.44948,3.44948,0,0,1-3.6299-3.7715,3.62609,3.62609,0,1,1,7.2471,0,3.45964,3.45964,0,0,1-3.6172,3.7715"/><path class="cls-1" d="M484.21579,57.8536h-2.3701v4.7988h1.0303V60.7129h.8105l1.1055,1.9395h1.1807l-1.1807-1.9395c.8545-.0781,1.3262-.4443,1.3262-1.3545,0-1.1552-.6123-1.5048-1.9024-1.5048m.01951,2.1045H482.876V58.6182h1.1035c.4824,0,1.1875-.0488,1.1875.6143,0,.6113-.375.7422-.93169.7256"/></svg>